<svg width="24" height="24" viewBox="0 0 24 24" fill="none" xmlns="http://www.w3.org/2000/svg">
<path d="M21.27 9.17988C20.98 8.71988 20.67 8.28988 20.35 7.88988C19.98 7.41988 19.28 7.37988 18.86 7.79988L15.86 10.7999C16.08 11.4599 16.12 12.2199 15.92 13.0099C15.57 14.4199 14.43 15.5599 13.02 15.9099C12.23 16.1099 11.47 16.0699 10.81 15.8499C10.81 15.8499 9.38 17.2799 8.35 18.3099C7.85 18.8099 8.01 19.6899 8.68 19.9499C9.75 20.3599 10.86 20.5699 12 20.5699C13.78 20.5699 15.51 20.0499 17.09 19.0799C18.7 18.0799 20.15 16.6099 21.32 14.7399C22.27 13.2299 22.22 10.6899 21.27 9.17988Z" fill="#99A7C4"/>
<path d="M14.02 9.97988L9.98 14.0199C9.47 13.4999 9.14 12.7799 9.14 11.9999C9.14 10.4299 10.42 9.13988 12 9.13988C12.78 9.13988 13.5 9.46988 14.02 9.97988Z" fill="#99A7C4"/>
<path d="M18.25 5.74988L14.86 9.13988C14.13 8.39988 13.12 7.95988 12 7.95988C9.76 7.95988 7.96 9.76988 7.96 11.9999C7.96 13.1199 8.41 14.1299 9.14 14.8599L5.76 18.2499H5.75C4.64 17.3499 3.62 16.1999 2.75 14.8399C1.75 13.2699 1.75 10.7199 2.75 9.14988C3.91 7.32988 5.33 5.89988 6.91 4.91988C8.49 3.95988 10.22 3.42988 12 3.42988C14.23 3.42988 16.39 4.24988 18.25 5.74988Z" fill="#99A7C4"/>
<path d="M14.86 11.9999C14.86 13.5699 13.58 14.8599 12 14.8599C11.94 14.8599 11.89 14.8599 11.83 14.8399L14.84 11.8299C14.86 11.8899 14.86 11.9399 14.86 11.9999Z" fill="#99A7C4"/>
<path d="M21.77 2.22988C21.47 1.92988 20.98 1.92988 20.68 2.22988L2.23 20.6899C1.93 20.9899 1.93 21.4799 2.23 21.7799C2.38 21.9199 2.57 21.9999 2.77 21.9999C2.97 21.9999 3.16 21.9199 3.31 21.7699L21.77 3.30988C22.08 3.00988 22.08 2.52988 21.77 2.22988Z" fill="#99A7C4"/>
</svg>
