<svg width="16" height="16" viewBox="0 0 16 16" fill="none" xmlns="http://www.w3.org/2000/svg">
<path d="M8.66667 2C4.99333 2 2 4.99333 2 8.66667C2 12.34 4.99333 15.3333 8.66667 15.3333C12.34 15.3333 15.3333 12.34 15.3333 8.66667C15.3333 4.99333 12.34 2 8.66667 2ZM8.16667 6C8.16667 5.72667 8.39333 5.5 8.66667 5.5C8.94 5.5 9.16667 5.72667 9.16667 6V9.33333C9.16667 9.60667 8.94 9.83333 8.66667 9.83333C8.39333 9.83333 8.16667 9.60667 8.16667 9.33333V6ZM9.28 11.5867C9.24667 11.6733 9.2 11.74 9.14 11.8067C9.07333 11.8667 9 11.9133 8.92 11.9467C8.84 11.98 8.75333 12 8.66667 12C8.58 12 8.49333 11.98 8.41333 11.9467C8.33333 11.9133 8.26 11.8667 8.19333 11.8067C8.13333 11.74 8.08667 11.6733 8.05333 11.5867C8.02 11.5067 8 11.42 8 11.3333C8 11.2467 8.02 11.16 8.05333 11.08C8.08667 11 8.13333 10.9267 8.19333 10.86C8.26 10.8 8.33333 10.7533 8.41333 10.72C8.57333 10.6533 8.76 10.6533 8.92 10.72C9 10.7533 9.07333 10.8 9.14 10.86C9.2 10.9267 9.24667 11 9.28 11.08C9.31333 11.16 9.33333 11.2467 9.33333 11.3333C9.33333 11.42 9.31333 11.5067 9.28 11.5867Z" fill="#4076FF"/>
</svg>
