<svg width="18" height="18" viewBox="0 0 18 18" fill="none" xmlns="http://www.w3.org/2000/svg">
<path d="M15.75 9.5925C15.6321 10.8692 15.1529 12.0858 14.3687 13.1001C13.5845 14.1144 12.5277 14.8843 11.3218 15.3199C10.116 15.7555 8.81104 15.8386 7.55967 15.5596C6.30831 15.2805 5.16229 14.6509 4.25572 13.7443C3.34914 12.8378 2.7195 11.6917 2.44048 10.4404C2.16145 9.18901 2.24459 7.88406 2.68014 6.67822C3.1157 5.47238 3.88567 4.41552 4.89996 3.63131C5.91424 2.8471 7.1309 2.36798 8.40755 2.25C7.66011 3.2612 7.30044 4.50709 7.39395 5.76106C7.48746 7.01503 8.02794 8.19379 8.9171 9.08295C9.80625 9.9721 10.985 10.5126 12.239 10.6061C13.493 10.6996 14.7388 10.3399 15.75 9.5925Z" stroke="#454F63" stroke-width="2" stroke-linecap="round" stroke-linejoin="round"/>
</svg>
