<svg width="24" height="24" viewBox="0 0 24 24" fill="none" xmlns="http://www.w3.org/2000/svg">
<path d="M19.7901 4.21995C16.8301 1.26995 12.0301 1.26995 9.09015 4.21995C7.02015 6.26995 6.40015 9.21995 7.20015 11.8199L2.50015 16.5199C2.17015 16.8599 1.94015 17.5299 2.01015 18.0099L2.31015 20.1899C2.42015 20.9099 3.09015 21.5899 3.81015 21.6899L5.99015 21.9899C6.47015 22.0599 7.14015 21.8399 7.48015 21.4899L8.30015 20.6699C8.50015 20.4799 8.50015 20.1599 8.30015 19.9599L6.36015 18.0199C6.07015 17.7299 6.07015 17.2499 6.36015 16.9599C6.65015 16.6699 7.13015 16.6699 7.42015 16.9599L9.37015 18.9099C9.56015 19.0999 9.88015 19.0999 10.0701 18.9099L12.1901 16.7999C14.7801 17.6099 17.7301 16.9799 19.7901 14.9299C22.7401 11.9799 22.7401 7.16995 19.7901 4.21995ZM14.5001 11.9999C13.1201 11.9999 12.0001 10.8799 12.0001 9.49995C12.0001 8.11995 13.1201 6.99995 14.5001 6.99995C15.8801 6.99995 17.0001 8.11995 17.0001 9.49995C17.0001 10.8799 15.8801 11.9999 14.5001 11.9999Z" fill="#99A7C4"/>
</svg>
